HIERARCHY
ROOT Hips
{
	OFFSET 0.000000 88.474243 0.000000
	CHANNELS 6 Xposition Yposition Zposition Zrotation Yrotation Xrotation 
	JOINT Hips_Spine
	{
		OFFSET 0.000000 0.000000 0.000000
		CHANNELS 3 Zrotation Yrotation Xrotation
		JOINT Spine
		{
			OFFSET 0.005100 8.711998 -0.691000
			CHANNELS 3 Zrotation Yrotation Xrotation
			JOINT Spine1
			{
				OFFSET -0.009200 8.660301 -1.275000
				CHANNELS 3 Zrotation Yrotation Xrotation
				JOINT Spine2
				{
					OFFSET 0.006300 9.852501 -1.857000
					CHANNELS 3 Zrotation Yrotation Xrotation
					JOINT Spine2_Neck
					{
						OFFSET 0.000000 0.000000 0.000000
						CHANNELS 3 Zrotation Yrotation Xrotation
						JOINT Neck
						{
							OFFSET 0.016300 11.420799 -0.263300
							CHANNELS 3 Zrotation Yrotation Xrotation
							End Site #name: Head
							{
								OFFSET -0.019200 9.262405 2.362500
							}
						}
					}
					JOINT Spine2_LeftShoulder
					{
						OFFSET 0.000000 0.000000 0.000000
						CHANNELS 3 Zrotation Yrotation Xrotation
						JOINT LeftShoulder
						{
							OFFSET 5.616900 6.732201 -0.345700
							CHANNELS 3 Zrotation Yrotation Xrotation
							JOINT LeftArm
							{
								OFFSET 10.664888 -0.183372 -2.440700
								CHANNELS 3 Zrotation Yrotation Xrotation
								JOINT LeftForeArm
								{
									OFFSET 27.459126 0.000000 0.000000
									CHANNELS 3 Zrotation Yrotation Xrotation
									End Site #name: LeftHand
									{
										OFFSET 21.306858 0.000000 0.000000
									}
								}
							}
						}
					}
					JOINT Spine2_RightShoulder
					{
						OFFSET 0.000000 0.000000 0.000000
						CHANNELS 3 Zrotation Yrotation Xrotation
						JOINT RightShoulder
						{
							OFFSET -5.580300 6.737503 -0.344400
							CHANNELS 3 Zrotation Yrotation Xrotation
							JOINT RightArm
							{
								OFFSET -10.679335 -0.188484 -2.383900
								CHANNELS 3 Zrotation Yrotation Xrotation
								JOINT RightForeArm
								{
									OFFSET -27.503529 0.000000 0.000000
									CHANNELS 3 Zrotation Yrotation Xrotation
									End Site #name: RightHand
									{
										OFFSET -21.306808 0.000000 0.000000
									}
								}
							}
						}
					}
				}
			}
		}
	}
	JOINT Hips_LeftUpLeg
	{
		OFFSET 0.000000 0.000000 0.000000
		CHANNELS 3 Zrotation Yrotation Xrotation
		JOINT LeftUpLeg
		{
			OFFSET 6.857700 -6.739601 0.312100
			CHANNELS 3 Zrotation Yrotation Xrotation
			JOINT LeftLeg
			{
				OFFSET -0.367590 -34.731552 -4.572400
				CHANNELS 3 Zrotation Yrotation Xrotation
				End Site #name: LeftFoot
				{
					OFFSET 0.367590 -34.656704 -6.067400
				}
			}
		}
	}
	JOINT Hips_RightUpLeg
	{
		OFFSET 0.000000 0.000000 0.000000
		CHANNELS 3 Zrotation Yrotation Xrotation
		JOINT RightUpLeg
		{
			OFFSET -6.876100 -6.733299 0.301000
			CHANNELS 3 Zrotation Yrotation Xrotation
			JOINT RightLeg
			{
				OFFSET 0.347353 -34.795158 -4.515900
				CHANNELS 3 Zrotation Yrotation Xrotation
				End Site #name: RightFoot
				{
					OFFSET -0.347353 -34.589367 -6.070300
				}
			}
		}
	}
}
MOTION
Frames: 17
Frame Time: 0.041667
-0.011687 -0.010135 0.081159 0.415523 -3.414484 -3.028882 0.000000 -0.000000 0.000000 -0.864939 1.963936 2.886036 -0.918348 3.205966 -0.703109 0.000000 0.000000 0.000000 -0.749166 3.207023 -1.931538 1.364312 2.757964 1.006781 -1.811250 3.435753 -1.182979 -10.393263 -6.682230 1.441753 -51.735817 -0.482349 15.676576 -0.857792 -83.046327 1.505707 -0.433416 3.422734 -1.144304 7.794060 6.807542 2.876372 59.759364 26.747202 20.052497 179.281339 78.235268 178.907034 0.000000 0.000000 0.000000 3.027405 6.106438 -20.088426 0.006123 1.679312 21.189893 0.000000 0.000000 0.000000 -6.199383 -11.006169 -13.752543 2.408799 0.911944 25.757797 
-0.089508 0.062076 0.053947 0.835436 -3.565982 -3.051325 0.000000 -0.000000 0.000000 -1.063290 1.483238 0.097688 -1.597553 3.773177 -2.246907 0.000000 0.000000 0.000000 -1.728229 3.709288 -2.322195 2.269416 2.367589 1.642872 -1.072575 4.000235 -2.046324 -7.851176 -5.246052 1.076004 -47.264993 4.568270 19.428456 -1.044138 -80.159690 1.212144 -1.639267 3.592206 -1.748270 7.930729 5.993603 1.849028 57.689131 32.418074 16.264116 11.525036 87.579637 11.550178 0.000000 -0.000000 -0.000000 2.703217 8.119348 -19.085440 -1.251368 -0.122323 18.727010 0.000000 -0.000000 0.000000 -6.686230 -9.838735 -13.613160 1.611820 -0.940263 25.669239 
-0.126109 0.060672 0.041651 0.861046 -3.252909 -2.936436 0.000000 -0.000000 0.000000 -1.438604 1.444954 0.000719 -1.917576 3.456795 -2.148268 0.000000 0.000000 0.000000 -2.256342 3.387488 -2.577988 1.894342 2.560650 1.735593 -1.860599 3.691464 -1.770169 -8.440978 -3.176874 0.746760 -47.713758 5.388289 18.635414 -1.078950 -84.287490 0.926627 -2.040280 3.407142 -1.939329 8.688212 5.720920 1.706207 62.786633 27.326466 16.533246 2.235466 81.168306 2.172676 0.000000 -0.000000 -0.000000 2.859065 8.173729 -19.100312 -1.777237 -0.731007 18.753436 0.000000 -0.000000 0.000000 -6.618972 -9.792647 -13.778644 0.970040 -1.588990 25.481171 
-0.150261 0.047956 0.030256 0.698219 -3.002914 -2.837641 0.000000 0.000000 0.000000 -1.877364 1.240151 0.169190 -1.901160 2.847299 -1.614229 0.000000 0.000000 0.000000 -2.175765 2.709777 -2.191318 1.226407 1.961834 1.371150 -1.982940 2.959667 -1.441944 -8.879431 -2.708130 0.726216 -47.987743 3.472245 20.156863 -0.367135 -83.823610 0.179877 -1.959784 2.811484 -1.724864 9.054249 5.832181 1.820875 63.622541 22.104018 13.282246 2.363470 84.152110 2.329502 0.000000 -0.000000 -0.000000 2.949201 8.252230 -19.183716 -1.839695 -0.854035 18.774702 -0.000000 -0.000000 0.000000 -6.400523 -9.781224 -14.250623 1.058749 -1.410305 26.048637 
-0.154353 0.040442 0.025226 0.597622 -2.902358 -2.813625 0.000000 -0.000000 0.000000 -2.142629 1.157256 0.319227 -2.018458 2.531662 -1.298842 0.000000 0.000000 0.000000 -2.275938 2.409650 -2.026551 0.676638 1.603096 0.952617 -2.125133 2.651019 -1.276872 -9.379236 -2.357407 0.756063 -47.671807 1.785465 20.701906 -0.466648 -82.966689 0.289167 -2.090548 2.558009 -1.562175 9.742297 5.692186 1.920464 63.285320 18.244760 11.185061 2.665945 87.311693 2.713609 -0.000000 -0.000000 -0.000000 3.007423 8.574393 -19.525279 -1.877462 -0.743134 19.470505 -0.000000 -0.000000 0.000000 -6.273881 -9.698272 -14.674422 1.149278 -1.327382 26.731432 
-0.147710 0.040228 0.025558 0.548336 -3.026193 -2.818333 0.000000 -0.000000 0.000000 -2.124262 1.206725 0.187002 -2.184962 2.538983 -1.256477 0.000000 0.000000 0.000000 -2.446051 2.423030 -2.071327 0.263473 1.126477 0.751583 -2.274727 2.651361 -1.280742 -9.674245 -2.110682 0.798735 -47.920866 0.864772 20.737337 -0.843925 -83.171616 0.675876 -2.245383 2.573567 -1.555049 10.049167 5.670247 1.909805 61.880714 15.881906 9.549985 1.927243 88.573031 2.049163 -0.000000 -0.000000 -0.000000 3.076759 8.803392 -19.829108 -1.941092 -0.639969 20.174836 -0.000000 -0.000000 0.000000 -6.209092 -9.481675 -14.913314 1.204020 -1.285109 27.098810 
-0.136656 0.045083 0.029685 0.510519 -3.174564 -2.805661 0.000000 -0.000000 0.000000 -2.037411 1.298056 0.069290 -2.320318 2.736306 -1.394861 0.000000 0.000000 0.000000 -2.580672 2.620082 -2.231988 0.007010 0.679892 0.557236 -2.403636 2.809989 -1.415519 -9.871989 -1.804893 0.783550 -48.284109 0.259662 20.917566 -1.170555 -83.773313 1.001335 -2.385799 2.750028 -1.678030 10.215600 5.766892 1.814818 60.800733 14.708820 8.806266 1.668930 88.938295 1.831383 -0.000000 -0.000000 -0.000000 3.129366 8.867444 -20.034302 -1.991121 -0.594477 20.651037 -0.000000 0.000000 0.000000 -6.156174 -9.327902 -15.034493 1.217819 -1.263770 27.249350 
-0.125935 0.051690 0.035597 0.473352 -3.292565 -2.779171 0.000000 -0.000000 0.000000 -1.994815 1.381970 0.028268 -2.420165 2.949386 -1.577899 0.000000 0.000000 0.000000 -2.690048 2.841672 -2.403022 -0.114322 0.397815 0.404539 -2.487895 2.986741 -1.583234 -9.989715 -1.504726 0.760450 -48.436892 0.158126 21.476396 -1.359042 -84.423663 1.184052 -2.509914 2.966932 -1.847309 10.359484 5.947338 1.814635 60.327418 14.485121 8.780403 2.479667 89.004171 2.653479 -0.000000 -0.000000 -0.000000 3.173680 8.856600 -20.158802 -2.012924 -0.569890 20.912854 -0.000000 0.000000 0.000000 -6.111740 -9.278738 -15.083643 1.191813 -1.287263 27.262518 
-0.120643 0.058730 0.042882 0.439184 -3.368827 -2.750747 0.000000 -0.000000 0.000000 -1.984120 1.445838 -0.027917 -2.504698 3.116842 -1.728472 0.000000 0.000000 0.000000 -2.796930 3.013154 -2.525561 -0.162742 0.293377 0.332408 -2.560440 3.135248 -1.727279 -10.053587 -1.200717 0.735547 -48.468603 0.450330 22.149834 -1.353400 -84.710050 1.176324 -2.628034 3.134090 -1.991697 10.371176 6.016905 1.844116 60.244602 14.979453 9.372715 5.042757 89.182038 5.218213 0.000000 -0.000000 -0.000000 3.207285 8.812629 -20.217768 -2.013454 -0.555575 21.019643 -0.000000 0.000000 0.000000 -6.081255 -9.275513 -15.102091 1.189230 -1.300543 27.223612 
-0.120097 0.065404 0.051495 0.423218 -3.415400 -2.730171 0.000000 -0.000000 0.000000 -2.011163 1.488481 -0.131978 -2.594240 3.233295 -1.826877 0.000000 0.000000 0.000000 -2.914971 3.128583 -2.606798 -0.182112 0.281398 0.254418 -2.647478 3.239961 -1.825594 -10.093904 -0.946837 0.703086 -48.473148 0.846437 22.703684 -1.377657 -84.816649 1.196512 -2.749504 3.250155 -2.099664 10.318745 5.943008 1.852218 60.380189 15.909334 10.334006 13.103354 89.576252 13.273737 0.000000 -0.000000 -0.000000 3.229389 8.744919 -20.221778 -2.005427 -0.540874 21.015189 -0.000000 0.000000 0.000000 -6.067518 -9.294387 -15.114837 1.193453 -1.297500 27.191842 
-0.123783 0.071502 0.060903 0.421796 -3.448905 -2.724212 0.000000 -0.000000 0.000000 -2.052898 1.526940 -0.253019 -2.698653 3.325693 -1.905466 0.000000 0.000000 0.000000 -3.045187 3.215482 -2.666832 -0.178984 0.303166 0.216928 -2.764381 3.343616 -1.918915 -10.106522 -0.817983 0.687282 -48.473586 1.296777 22.962342 -1.447466 -84.876781 1.259197 -2.879681 3.339611 -2.188136 10.175451 5.760114 1.813588 60.649099 17.302056 11.305195 149.283889 89.770457 149.452228 0.000000 -0.000000 -0.000000 3.238245 8.679481 -20.187381 -1.992576 -0.532784 20.947442 -0.000000 -0.000000 0.000000 -6.061986 -9.330839 -15.116551 1.195848 -1.290970 27.166819 
-0.131105 0.077384 0.070766 0.429194 -3.463867 -2.728163 0.000000 -0.000000 0.000000 -2.100173 1.564740 -0.387192 -2.809124 3.418286 -1.977884 0.000000 0.000000 0.000000 -3.179810 3.296912 -2.722035 -0.159382 0.317918 0.214981 -2.892158 3.441406 -2.008033 -10.120479 -0.803913 0.689751 -48.457683 1.699398 22.920467 -1.443983 -84.761154 1.244925 -3.014473 3.423798 -2.267878 10.016999 5.565120 1.776321 61.025661 18.948426 12.214318 170.153277 89.214930 170.319472 0.000000 -0.000000 -0.000000 3.240215 8.628536 -20.144881 -1.976637 -0.525415 20.874356 -0.000000 -0.000000 0.000000 -6.059766 -9.374121 -15.113779 1.194829 -1.285614 27.160622 
-0.141399 0.083212 0.080479 0.441192 -3.462589 -2.738397 0.000000 -0.000000 0.000000 -2.143435 1.608382 -0.518095 -2.922658 3.515963 -2.048150 0.000000 0.000000 0.000000 -3.314285 3.387230 -2.781884 -0.138545 0.313260 0.231910 -3.023207 3.542055 -2.094548 -10.123529 -0.899679 0.713129 -48.394671 2.068037 22.654586 -1.391458 -84.545219 1.184439 -3.150709 3.513435 -2.348611 9.881988 5.364770 1.737691 61.458032 20.433119 12.946250 173.458720 88.717134 173.628428 0.000000 -0.000000 -0.000000 3.239893 8.599166 -20.111438 -1.964499 -0.517111 20.818500 -0.000000 -0.000000 0.000000 -6.056021 -9.421589 -15.108519 1.188952 -1.278824 27.166927 
-0.153881 0.089179 0.089961 0.453621 -3.445256 -2.749560 0.000000 -0.000000 0.000000 -2.188238 1.659844 -0.584835 -3.028416 3.618756 -2.119341 0.000000 0.000000 0.000000 -3.444821 3.485081 -2.845467 -0.120034 0.286041 0.258470 -3.141396 3.648415 -2.177574 -10.119713 -1.066251 0.752756 -48.307234 2.388522 22.277710 -1.298657 -84.221930 1.083352 -3.279599 3.608620 -2.426388 9.759627 5.181708 1.699096 61.837726 21.713144 13.553307 174.728314 88.300366 174.900657 0.000000 -0.000000 -0.000000 3.240628 8.583960 -20.087152 -1.955615 -0.507047 20.779848 -0.000000 -0.000000 0.000000 -6.053652 -9.464483 -15.099576 1.184136 -1.276422 27.175185 
-0.167702 0.095369 0.099152 0.465401 -3.419570 -2.757997 0.000000 -0.000000 0.000000 -2.230038 1.715088 -0.627183 -3.128524 3.725000 -2.217567 0.000000 0.000000 0.000000 -3.565645 3.584197 -2.909080 -0.098598 0.245825 0.287068 -3.242579 3.752357 -2.251108 -10.115576 -1.274551 0.796792 -48.173716 2.730948 21.837962 -1.222166 -83.829020 0.999442 -3.398897 3.703723 -2.500406 9.655363 5.049205 1.660893 62.123368 22.693848 13.918104 175.504844 87.913761 175.680400 0.000000 -0.000000 -0.000000 3.240593 8.573333 -20.072369 -1.949430 -0.502146 20.760661 -0.000000 -0.000000 0.000000 -6.052545 -9.501088 -15.097620 1.177742 -1.275933 27.192759 
-0.182095 0.101988 0.107901 0.478708 -3.391509 -2.764778 0.000000 -0.000000 0.000000 -2.265483 1.766838 -0.653287 -3.232802 3.828991 -2.302644 0.000000 0.000000 0.000000 -3.671930 3.675468 -2.969017 -0.080932 0.201366 0.316884 -3.327518 3.845271 -2.313474 -10.101598 -1.485470 0.834024 -48.014905 3.059260 21.389181 -1.160096 -83.496751 0.934031 -3.503101 3.789243 -2.567941 9.557087 4.949557 1.614485 62.263299 23.456517 14.077836 176.002675 87.589328 176.178578 0.000000 -0.000000 -0.000000 3.237857 8.563015 -20.066177 -1.946873 -0.505654 20.754505 -0.000000 -0.000000 0.000000 -6.052832 -9.527945 -15.089494 1.173396 -1.277551 27.196331 
-0.196250 0.108990 0.116111 0.492613 -3.366123 -2.768514 0.000000 -0.000000 0.000000 -2.295136 1.810061 -0.676967 -3.323431 3.915436 -2.368791 0.000000 0.000000 0.000000 -3.761079 3.751706 -3.021744 -0.064416 0.159307 0.345493 -3.398173 3.925138 -2.368037 -10.106109 -1.647229 0.859971 -47.861524 3.310007 21.039657 -1.148663 -83.262556 0.918077 -3.591901 3.861913 -2.628180 9.470612 4.866220 1.576809 62.323007 23.972883 14.077080 176.333203 87.320948 176.508605 0.000000 -0.000000 -0.000000 3.233307 8.555966 -20.066545 -1.946940 -0.510007 20.757816 -0.000000 -0.000000 0.000000 -6.055437 -9.547544 -15.086350 1.169536 -1.279893 27.207067 
